<svg id="eRaIVUsSyo21" xmlns="http://www.w3.org/2000/svg" xmlns:xlink="http://www.w3.org/1999/xlink" viewBox="0 0 600 600" shape-rendering="geometricPrecision" text-rendering="geometricPrecision" project-id="ebd8607c8db943838c4b888f52a231f3" export-id="8f81dce28dd44d17b0f8e4d445cd14af" cached="false"><rect width="586.066764" height="586.066764" rx="80" ry="80" transform="translate(6.966618 6.966618)" fill="#a9cce9" stroke-width="0"/><g transform="matrix(.95 0 0 0.95 14.999983 24.236537)"><path d="M62.69957,440.29028c0-23.81311,7.89513-45.78225,21.21062-63.4327-.11008-2.30378-.16563-4.61894-.16563-6.94465c0-97.09471,96.82086-175.80552,216.25544-175.80552s216.25544,78.71081,216.25544,175.80552c0,2.32571-.05555,4.64087-.16563,6.94465c13.3155,17.65045,21.21062,39.61959,21.21062,63.4327c0,36.66029-18.71193,68.95025-47.10612,87.84038C453.58571,556.57834,382.14098,575.89262,300,575.89262s-153.58571-19.31428-190.19431-47.76196c-28.3942-18.89013-47.10612-51.18009-47.10612-87.84038Z" fill="#f4f3f3" stroke-width="20"/><path d="M230.471671,440.512555c0,0,12.92452,25.898716,69.528311,25.898716s69.528312-25.898716,69.528312-25.898716" transform="translate(.000001 20.835594)" fill="none" stroke="#1c2f40" stroke-width="20" stroke-linecap="round" stroke-linejoin="round"/><ellipse rx="33.011804" ry="42.45283" transform="translate(409.589983 371.91582)" fill="#1c2f40" stroke-width="0"/><ellipse rx="11.135856" ry="14.320596" transform="translate(401.206686 352.302714)" fill="#f4f3f3" stroke-width="0"/><ellipse rx="33.011804" ry="42.45283" transform="matrix(-1 0 0 1 190.409983 371.91582)" fill="#1c2f40" stroke-width="0"/><ellipse rx="11.135856" ry="14.320596" transform="matrix(-1 0 0 1 198.79335 352.302714)" fill="#f4f3f3" stroke-width="0"/><g transform="matrix(.996195-.087156 0.087156 0.996195-17.563735 23.662101)"><path d="M46.967163,-9.782072c0,43.297565-6.74235,81.953045-17.300908,107.340745-.093172,1.122544-4.26088,16.609842-30.53494,16.500041s-26.716246-12.464125-27.215225-12.857818C-39.546539,75.955318,-46.967163,35.64116,-46.967163,-9.782072c0-76.463807,21.027915-138.449969,46.967163-138.449969s46.967163,61.986162,46.967163,138.449969Z" transform="matrix(.865577 0.500775-.500775 0.865577 479.759578 166.79753)" fill="#347cbf" stroke-width="20"/><path d="M525.31191,181.85039c-10.21046,17.64852-21.1996,33.65726-32.25184,47.39956-14.2538-2.02797-28.91911-6.99001-42.86119-15.03947-12.58617-7.26663-23.28802-16.30173-31.78586-26.32593c6.47364-16.86039,15.07214-34.89175,25.59148-53.07415c14.59016-25.21871,30.77028-47.0892,46.4525-63.78304c11.60357,2.55438,23.33301,7.04107,34.5909,13.54082c12.68752,7.32514,23.46026,16.44736,31.99072,26.56829-6.68899,21.58739-17.43511,46.01127-31.72671,70.71393v-.00001Z" fill="#fcaf2a" stroke-width="20"/></g><g transform="matrix(-.996195-.087156-.087156 0.996195 617.563769 23.662096)"><path d="M46.967163,-9.782072c0,43.297565-6.74235,81.953045-17.300908,107.340745-.093172,1.122544-4.26088,16.609842-30.53494,16.500041s-26.716246-12.464125-27.215225-12.857818C-39.546539,75.955318,-46.967163,35.64116,-46.967163,-9.782072c0-76.463807,21.027915-138.449969,46.967163-138.449969s46.967163,61.986162,46.967163,138.449969Z" transform="matrix(.865577 0.500775-.500775 0.865577 479.759578 166.79753)" fill="#347cbf" stroke-width="20"/><path d="M525.31191,181.85039c-10.21046,17.64852-21.1996,33.65726-32.25184,47.39956-14.2538-2.02797-28.91911-6.99001-42.86119-15.03947-12.58617-7.26663-23.28802-16.30173-31.78586-26.32593c6.47364-16.86039,15.07214-34.89175,25.59148-53.07415c14.59016-25.21871,30.77028-47.0892,46.4525-63.78304c11.60357,2.55438,23.33301,7.04107,34.5909,13.54082c12.68752,7.32514,23.46026,16.44736,31.99072,26.56829-6.68899,21.58739-17.43511,46.01127-31.72671,70.71393v-.00001Z" fill="#fcaf2a" stroke-width="20"/></g></g></svg>
