<svg width="227" height="53" xmlns="http://www.w3.org/2000/svg" xmlns:xlink="http://www.w3.org/1999/xlink"><defs><path id="a" d="M.361.392H52.5v50.791H.361z"/></defs><g fill="none" fill-rule="evenodd"><path d="M79.604 35.93c1.179 0 2.249-.19 3.211-.572a6.55 6.55 0 002.47-1.703c.685-.754 1.213-1.699 1.586-2.834s.559-2.457.559-3.965-.186-2.83-.559-3.965c-.373-1.135-.901-2.08-1.586-2.834a6.55 6.55 0 00-2.47-1.703c-.962-.381-2.032-.572-3.211-.572H73V35.93h6.604zm0-3.042h-3.172V20.824h3.172c1.283 0 2.301.377 3.055 1.131s1.131 1.911 1.131 3.471v2.86c0 1.56-.377 2.717-1.131 3.471s-1.772 1.131-3.055 1.131zm16.38-12.064l3.276-4.446L96.452 15l-2.47 4.862 2.002.962zM94.06 36.242c1.023 0 1.88-.221 2.574-.663.693-.442 1.153-1.105 1.378-1.989h.156c.104.71.368 1.278.793 1.703.425.425 1.001.637 1.729.637h1.846v-2.652h-1.352v-6.396c0-1.56-.477-2.756-1.43-3.588-.953-.832-2.349-1.248-4.186-1.248-1.37 0-2.47.238-3.302.715a5.727 5.727 0 00-2.002 1.885l1.976 1.768c.33-.468.732-.871 1.209-1.209.477-.338 1.105-.507 1.885-.507.884 0 1.525.208 1.924.624.399.416.598 1.005.598 1.768v.988h-2.314c-1.855 0-3.285.342-4.29 1.027-1.005.685-1.508 1.729-1.508 3.133 0 1.213.373 2.184 1.118 2.912.745.728 1.811 1.092 3.198 1.092zm1.118-2.418c-.659 0-1.166-.134-1.521-.403s-.533-.68-.533-1.235v-.442c0-1.11.867-1.664 2.6-1.664h2.132v1.794c0 .641-.26 1.127-.78 1.456-.52.33-1.153.494-1.898.494zm16.692 2.106v-2.652h-2.574V25.01h2.782v-2.652h-2.782V18.64h-2.99v2.314c0 .468-.091.819-.273 1.053-.182.234-.524.351-1.027.351h-1.04v2.652h2.002v7.462c0 1.11.299 1.963.897 2.561.598.598 1.469.897 2.613.897h2.392zm7.28.312c.555 0 1.044-.07 1.469-.208a3.436 3.436 0 001.846-1.391c.2-.303.36-.628.481-.975h.13v2.262h3.328V22.358h-3.328v8.97c0 .364-.078.68-.234.949a2.242 2.242 0 01-.598.676 2.463 2.463 0 01-.845.403c-.32.087-.646.13-.975.13-.797 0-1.378-.247-1.742-.741-.364-.494-.546-1.209-.546-2.145v-8.242h-3.328v8.58c0 1.699.373 3.007 1.118 3.926.745.919 1.82 1.378 3.224 1.378zm16.588 0c1.265 0 2.379-.221 3.341-.663.962-.442 1.72-1.053 2.275-1.833l-1.794-2.002c-.416.537-.888.98-1.417 1.326-.529.347-1.209.52-2.041.52-1.092 0-1.915-.299-2.47-.897-.555-.598-.832-1.391-.832-2.379v-.338h9.022v-1.092c0-.936-.126-1.816-.377-2.639a6.398 6.398 0 00-1.131-2.171 5.308 5.308 0 00-1.924-1.482c-.78-.364-1.699-.546-2.756-.546-.988 0-1.872.169-2.652.507a5.473 5.473 0 00-1.976 1.43c-.537.615-.949 1.356-1.235 2.223-.286.867-.429 1.837-.429 2.912 0 1.092.147 2.076.442 2.951.295.875.715 1.62 1.261 2.236a5.57 5.57 0 002.002 1.43c.789.338 1.686.507 2.691.507zm2.626-8.32H132.8v-.208c0-.936.26-1.699.78-2.288.52-.59 1.222-.884 2.106-.884.867 0 1.53.29 1.989.871.46.58.689 1.339.689 2.275v.234zm10.4 8.008V24.984h2.782v-2.626h-2.782v-3.016h2.782V16.69h-2.366c-1.23 0-2.162.32-2.795.962-.633.641-.949 1.56-.949 2.756v1.95h-2.002v2.626h2.002V35.93h3.328zm11.726 0v-2.652h-2.574V25.01h2.782v-2.652h-2.782V18.64h-2.99v2.314c0 .468-.091.819-.273 1.053-.182.234-.524.351-1.027.351h-1.04v2.652h2.002v7.462c0 1.11.299 1.963.897 2.561.598.598 1.469.897 2.613.897h2.392zm4.758-15.548c.676 0 1.17-.156 1.482-.468.312-.312.468-.71.468-1.196v-.52c0-.485-.156-.884-.468-1.196-.312-.312-.806-.468-1.482-.468-.693 0-1.192.156-1.495.468-.303.312-.455.71-.455 1.196v.52c0 .485.152.884.455 1.196.303.312.802.468 1.495.468zm1.664 15.548V22.358h-3.328V35.93h3.328zm7.176 0v-8.32c0-.745.286-1.283.858-1.612.572-.33 1.421-.494 2.548-.494h1.04v-3.146h-.728c-.537 0-1.01.078-1.417.234a3.425 3.425 0 00-1.053.624c-.295.26-.533.559-.715.897a4.328 4.328 0 00-.403 1.053h-.13v-2.808h-3.328V35.93h3.328zm12.012 0v-2.652h-1.794V16.69h-3.328v15.964c0 1.04.269 1.846.806 2.418.537.572 1.378.858 2.522.858h1.794zm4.186-15.548c.676 0 1.17-.156 1.482-.468.312-.312.468-.71.468-1.196v-.52c0-.485-.156-.884-.468-1.196-.312-.312-.806-.468-1.482-.468-.693 0-1.192.156-1.495.468-.303.312-.455.71-.455 1.196v.52c0 .485.152.884.455 1.196.303.312.802.468 1.495.468zm1.664 15.548V22.358h-3.328V35.93h3.328zm10.478 0v-2.652h-2.574V25.01h2.782v-2.652h-2.782V18.64h-2.99v2.314c0 .468-.091.819-.273 1.053-.182.234-.524.351-1.027.351h-1.04v2.652h2.002v7.462c0 1.11.299 1.963.897 2.561.598.598 1.469.897 2.613.897h2.392zm4.758-15.548c.676 0 1.17-.156 1.482-.468.312-.312.468-.71.468-1.196v-.52c0-.485-.156-.884-.468-1.196-.312-.312-.806-.468-1.482-.468-.693 0-1.192.156-1.495.468-.303.312-.455.71-.455 1.196v.52c0 .485.152.884.455 1.196.303.312.802.468 1.495.468zm1.664 15.548V22.358h-3.328V35.93h3.328zm9.568.312c.953 0 1.82-.147 2.6-.442a5.175 5.175 0 002.015-1.365c.563-.615 1.001-1.395 1.313-2.34.312-.945.468-2.058.468-3.341 0-1.993-.364-3.805-1.092-5.434a15.063 15.063 0 00-2.886-4.316l1.924-1.248-1.17-1.404-2.184 1.378a66.79 66.79 0 01-.702-.559 5.308 5.308 0 00-.702-.481h-5.07a37.82 37.82 0 012.015 1.222c.667.433 1.304.901 1.911 1.404l-2.028 1.222 1.196 1.43 2.236-1.404a14.09 14.09 0 011.911 2.288 7.753 7.753 0 011.105 2.522l-.156.078c-.364-.78-.862-1.4-1.495-1.859-.633-.46-1.417-.689-2.353-.689-.815 0-1.556.156-2.223.468a4.801 4.801 0 00-1.703 1.326c-.468.572-.828 1.257-1.079 2.054-.251.797-.377 1.681-.377 2.652 0 1.04.147 1.985.442 2.834.295.85.724 1.569 1.287 2.158a5.728 5.728 0 002.054 1.365c.806.32 1.72.481 2.743.481zm-.052-2.548c-.936 0-1.673-.295-2.21-.884-.537-.59-.806-1.413-.806-2.47v-1.508c0-1.057.269-1.88.806-2.47.537-.59 1.274-.884 2.21-.884.919 0 1.647.295 2.184.884.537.59.806 1.413.806 2.47v1.508c0 1.057-.269 1.88-.806 2.47-.537.59-1.265.884-2.184.884z" fill="#00263A" fill-rule="nonzero"/><path d="M23.932 26.621v23.412a2.496 2.496 0 104.992 0V26.621a2.495 2.495 0 10-4.992 0" fill="#3CB4E5"/><mask id="b" fill="#fff"><use xlink:href="#a"/></mask><path d="M44.643 37.025V26.654c0-10.04-8.17-18.21-18.216-18.21-10.212 0-18.21 7.654-18.21 17.427v11.155A20.948 20.948 0 015.355 26.46c0-11.62 9.454-21.076 21.075-21.076 11.62 0 21.075 9.455 21.075 21.076 0 3.8-1.03 7.425-2.862 10.565M26.427 16.436c-5.708 0-10.352 4.645-10.352 10.355v17.997a21.132 21.132 0 01-2.863-1.947v-16.97c0-7.09 5.683-12.433 13.215-12.433 7.291 0 13.22 5.928 13.22 13.216v16.187a21.132 21.132 0 01-2.862 1.947V26.79c0-5.71-4.646-10.355-10.358-10.355M26.43.392C12.057.392.361 12.086.361 26.46c0 11.027 6.985 20.904 17.379 24.58a2.494 2.494 0 003.328-2.354V26.79a5.364 5.364 0 015.359-5.361 5.366 5.366 0 015.363 5.361v21.895a2.5 2.5 0 003.33 2.354C45.515 47.364 52.5 37.487 52.5 26.46 52.5 12.086 40.803.392 26.43.392" fill="#3CB4E5" mask="url(#b)"/></g></svg>