<?xml version="1.0" encoding="utf-8"?>
<!-- Generator: Adobe Illustrator 23.1.0, SVG Export Plug-In . SVG Version: 6.00 Build 0)  -->
<svg version="1.1" id="Layer_1" xmlns="http://www.w3.org/2000/svg" xmlns:xlink="http://www.w3.org/1999/xlink" x="0px" y="0px"
	 viewBox="0 0 191 32" style="enable-background:new 0 0 191 32;" xml:space="preserve">
<style type="text/css">
	.st0{fill:#020814;}
	.st1{clip-path:url(#SVGID_2_);}
	.st2{fill:url(#SVGID_3_);}
	.st3{fill:url(#SVGID_4_);}
</style>
<path class="st0" d="M63,25.2V6.8h11.7v3.2h-8v5.4h6.5v3.2h-6.5v6.5H63z M77.3,25.2V6.8h3.7v18.4H77.3z M90.7,9.7
	c-2,0-2.9,0.6-2.9,1.9c0,0.6,0.2,1,0.7,1.3s1.6,0.7,3.4,1.3c1.8,0.6,3.1,1.2,3.8,2c0.7,0.7,1.1,1.8,1.1,3.3c0,1.9-0.6,3.4-1.8,4.4
	c-1.2,1-2.7,1.5-4.6,1.5c-1.4,0-3.1-0.2-5.2-0.6l-1-0.2l0.4-2.9c2.4,0.3,4.3,0.5,5.5,0.5c1.9,0,2.9-0.8,2.9-2.4c0-0.6-0.2-1-0.7-1.4
	c-0.4-0.3-1.3-0.7-2.6-1.1c-2.1-0.6-3.6-1.3-4.4-2.1c-0.8-0.8-1.3-2-1.3-3.4c0-1.8,0.6-3.2,1.7-4.1c1.1-0.9,2.6-1.4,4.6-1.4
	c1.3,0,3,0.2,5.1,0.5l1,0.2l-0.3,2.9C93.5,9.9,91.8,9.7,90.7,9.7z M110.3,25.2v-7.6h-6.8v7.6h-3.7V6.8h3.7v7.5h6.8V6.8h3.7v18.4
	H110.3z M118,25.2V6.8h11.7v3.2h-8v5.4h6.5v3.2h-6.5v6.5H118z M130.3,25.2l4.1-18.4h7.1l4.1,18.4h-3.7l-0.7-3.3h-6.4l-0.7,3.3H130.3
	z M137.3,9.9l-1.9,8.7h5l-1.9-8.7H137.3z M159.4,24.9c-1.9,0.4-3.6,0.6-5.2,0.6s-2.8-0.2-3.7-0.6s-1.6-1-2.2-1.8
	c-0.5-0.8-0.9-1.8-1.1-2.9c-0.2-1.1-0.3-2.5-0.3-4.2c0-3.5,0.5-6,1.5-7.4c1-1.4,2.9-2.1,5.5-2.1c1.5,0,3.3,0.2,5.4,0.7l-0.1,3
	c-1.8-0.3-3.3-0.4-4.5-0.4c-1.2,0-2,0.2-2.5,0.5c-0.5,0.3-0.9,0.9-1.1,1.8c-0.2,0.9-0.4,2.4-0.4,4.5s0.2,3.6,0.7,4.4
	c0.5,0.8,1.5,1.2,3,1.2c1.5,0,3.1-0.1,4.8-0.4L159.4,24.9z M160.8,10.1V6.8h13.5v3.3h-4.9v15.1h-3.7V10.1H160.8z M182.3,9.7
	c-2,0-2.9,0.6-2.9,1.9c0,0.6,0.2,1,0.7,1.3c0.5,0.3,1.6,0.7,3.4,1.3c1.8,0.6,3.1,1.2,3.8,2c0.7,0.7,1.1,1.8,1.1,3.3
	c0,1.9-0.6,3.4-1.8,4.4s-2.7,1.5-4.6,1.5c-1.4,0-3.1-0.2-5.2-0.6l-1-0.2l0.4-2.9c2.4,0.3,4.3,0.5,5.5,0.5c1.9,0,2.9-0.8,2.9-2.4
	c0-0.6-0.2-1-0.7-1.4c-0.4-0.3-1.3-0.7-2.6-1.1c-2.1-0.6-3.6-1.3-4.4-2.1c-0.8-0.8-1.3-2-1.3-3.4c0-1.8,0.6-3.2,1.7-4.1
	c1.1-0.9,2.6-1.4,4.6-1.4c1.3,0,3,0.2,5.1,0.5l1,0.2l-0.3,2.9C185.1,9.9,183.4,9.7,182.3,9.7z"/>
<g>
	<g>
		<defs>
			<rect id="SVGID_1_" width="50.7" height="32"/>
		</defs>
		<clipPath id="SVGID_2_">
			<use xlink:href="#SVGID_1_"  style="overflow:visible;"/>
		</clipPath>
		<g class="st1">

				<linearGradient id="SVGID_3_" gradientUnits="userSpaceOnUse" x1="18.6" y1="4.3234" x2="36.8222" y2="52.7677" gradientTransform="matrix(1 0 0 -1 0 32.2981)">
				<stop  offset="6.675640e-02" style="stop-color:#56669E"/>
				<stop  offset="0.5089" style="stop-color:#000F48"/>
			</linearGradient>
			<path class="st2" d="M0,4.1v9.5l20.8,14c4.4,3.4,10.9,2.2,13.6,0L50.7,16H38.6l-8.4,6.2c-1.6,1.1-3.8,1.2-5.3,0L0,4.1z"/>

				<linearGradient id="SVGID_4_" gradientUnits="userSpaceOnUse" x1="25.3333" y1="32.2981" x2="25.3333" y2="4.4463" gradientTransform="matrix(1 0 0 -1 0 32.2981)">
				<stop  offset="0" style="stop-color:#99AFFA"/>
				<stop  offset="1" style="stop-color:#002ABE"/>
			</linearGradient>
			<path class="st3" d="M0,28.1v-9.5L19.9,4.4c3.9-2.4,10.7-2.4,15,0L50.7,16H38.6l-8.4-5.8c-2.1-1-4.2-1-6,0L0,28.1z"/>
		</g>
	</g>
</g>
</svg>
