<svg xmlns="http://www.w3.org/2000/svg" viewBox="0 0 115.93 34.02"><defs><style>.cls-1{fill:#006eb6;}</style></defs><title>Asset 2</title><g id="Layer_2" data-name="Layer 2"><g id="Logotype"><path class="cls-1" d="M17,0a16.93,16.93,0,0,0-9.7,3L16,22.1a1.08,1.08,0,0,0,.49.55H14.93c-.7,0-.94-.09-1.26-.79l-8-17.56A17.11,17.11,0,0,0,4.14,5.86L11.53,22.1a1.08,1.08,0,0,0,.49.55H10.5c-.7,0-.94-.09-1.26-.79L2.78,7.66A17,17,0,0,0,1.55,9.87L7.11,22.1a1.08,1.08,0,0,0,.49.55H6.08c-.7,0-.94-.09-1.26-.79L.57,12.54A17,17,0,0,0,0,16.2l2.69,5.9a1.08,1.08,0,0,0,.49.55H1.66a1.55,1.55,0,0,1-.76-.12A17,17,0,1,0,17,0Zm0,31.56A14.54,14.54,0,0,1,4.75,24.88H28.52l-3.19-2.71a10.72,10.72,0,0,1-3,.48h-3c-.7,0-.94-.09-1.26-.79l-8-17.65A14.55,14.55,0,1,1,17,31.56Z"/><path class="cls-1" d="M55.07,24.87,45.91,12.55V24.87H43V7.68h2.85L55.07,20V7.68h2.85v17.2Z"/><path class="cls-1" d="M74.77,8.75a8.59,8.59,0,0,1,3.29,3.13,8.34,8.34,0,0,1,1.2,4.4,8.41,8.41,0,0,1-1.2,4.42,8.61,8.61,0,0,1-3.29,3.14,9.85,9.85,0,0,1-9.24,0,8.62,8.62,0,0,1-3.29-3.14A8.41,8.41,0,0,1,61,16.28a8.32,8.32,0,0,1,1.2-4.41,8.62,8.62,0,0,1,3.29-3.12,9.89,9.89,0,0,1,9.24,0ZM67.08,11a6.22,6.22,0,0,0-2.26,2.2,6,6,0,0,0,0,6.12,6.35,6.35,0,0,0,2.26,2.22,6.11,6.11,0,0,0,9.19-5.29,5.88,5.88,0,0,0-.82-3.05A6.14,6.14,0,0,0,73.24,11a6,6,0,0,0-3.08-.82A6.1,6.1,0,0,0,67.08,11Z"/><path class="cls-1" d="M90.11,19.67q-.24,0-.79,0H85.24v5.18h-2.9V7.68h7a7.7,7.7,0,0,1,5.11,1.54,5.36,5.36,0,0,1,1.82,4.34A6.26,6.26,0,0,1,95.33,17a5.39,5.39,0,0,1-2.64,2.09l3.85,5.74H93.25Zm2.3-3.45a3.14,3.14,0,0,0,1.08-2.59,3,3,0,0,0-1.08-2.51,5,5,0,0,0-3.09-.84H85.24v6.81h4.08A4.8,4.8,0,0,0,92.41,16.22Z"/><path class="cls-1" d="M102.52,21l-1.64,3.89h-3l7.59-17.2h3l7.51,17.2h-3.09L111.19,21Zm4.33-10.22-3.25,7.64h6.49Z"/></g></g></svg>