<svg id="Layer_2" xmlns="http://www.w3.org/2000/svg" viewBox="0 0 99.32 54.97"><defs><linearGradient id="linear-gradient" x1="10.14" y1="13.82" x2="16.92" y2="15.96" gradientUnits="userSpaceOnUse"><stop offset="0" stop-color="#326554"/><stop offset="1" stop-color="#a39251"/></linearGradient><style>.cls-2{fill:#326554}</style></defs><g id="Layer_1-2"><path class="cls-2" d="M15.03 33.98h17.89v3.77h-5.46v17.22H20.5V37.75h-5.46v-3.77ZM35 54.97 40.42 38c.77-2.47 1.69-4.21 4.59-4.21 2.56 0 3.48 1.89 4.16 4.01l5.66 17.17h-6.96l-1.21-3.87H39.5l-1.31 3.87H35Zm5.46-6.77h5.27l-2.52-8.51h-.1l-2.66 8.51ZM66.77 54.97h-6.96V34.02h6.96v20.95Zm5.95 0-5.71-9.91 6.43-11.07h4.16l-4.5 7.98 7.25 13.01h-7.64ZM92.36 37.07c-1.06 0-2.42.1-2.42 1.74 0 3.87 9.38.29 9.38 8.8 0 4.88-3.29 7.35-7.59 7.35h-7.54v-3.09h5.9c1.94 0 3.19-.15 3.19-2.51 0-3.87-10.06-.73-10.06-8.66 0-4.4 3.09-6.72 7.25-6.72h6.67v3.09h-4.79Z"/><path d="m25.19 3.56-1.87 2.36c2.33 2.19 3.78 5.3 3.78 8.74 0 6.62-5.37 11.99-11.99 11.99-4.33 0-8.12-2.29-10.23-5.72l-1.72 2.79c2.74 3.6 7.07 5.93 11.95 5.93 8.28 0 14.99-6.71 14.99-14.99 0-4.4-1.89-8.36-4.91-11.1Z" fill="url(#linear-gradient)"/><path class="cls-2" d="M9.55 1.83c-5.8 2.44-8.27 8.12-8.27 8.12-2.07 4.53-1.23 7.54-.21 9.45 2.77-8.25 11.05-9.71 11.05-9.71C7.01 11.36.57 20.21 3.17 23.72c.09.12 2.49-1.67 2.49-1.67 9.48.71 12-10.67 12-10.67C19.32 3.84 24.89.7 24.89.7 16.13-1.39 9.54 1.83 9.54 1.83Z"/></g></svg>