<svg width="133" height="65" xmlns="http://www.w3.org/2000/svg"><g style="mix-blend-mode:luminosity" fill="#000" fill-rule="evenodd"><path style="mix-blend-mode:luminosity" d="M8.691 1.708v20.286H7.045V1.708H.585V.241h14.596v1.467h-6.49M30.382 21.994l-1.89-5.285H18.377l-1.89 5.285H14.72L22.703.241h1.462l7.985 21.753h-1.768ZM23.435 2.441l-4.541 12.801h9.08l-4.54-12.8ZM35.955 21.994V.241h1.646v20.287h11.518v1.466H35.955M64.443 19.672c-1.433 1.59-3.504 2.506-5.698 2.506a7.645 7.645 0 0 1-5.425-2.23c-1.98-1.987-2.011-3.911-2.011-8.83 0-4.919.03-6.844 2.011-8.83a7.643 7.643 0 0 1 5.425-2.23c3.808 0 6.734 2.505 7.404 6.354h-1.645c-.64-2.993-2.834-4.888-5.76-4.888-1.554 0-3.016.58-4.114 1.68-1.554 1.558-1.675 3.239-1.675 7.914 0 4.674.121 6.354 1.675 7.912 1.098 1.1 2.56 1.68 4.115 1.68 1.706 0 3.381-.732 4.51-2.107.944-1.16 1.31-2.444 1.31-4.308V12.34h-5.82v-1.466h7.466v3.544c0 2.26-.488 3.88-1.768 5.254M71.996.241h1.646v21.753h-1.646zM80.344 21.994V.241h1.645v20.287h11.519v1.466H80.344M110.478 20.008c-1.28 1.283-3.17 1.986-5.424 1.986h-7.283V.241h7.283c2.255 0 4.144.703 5.424 1.986 2.194 2.2 2.102 5.652 2.102 8.585 0 2.933.092 6.997-2.102 9.196Zm-1.159-16.62c-1.249-1.283-2.925-1.68-4.661-1.68h-5.242v18.82h5.242c1.736 0 3.412-.397 4.661-1.68 1.737-1.772 1.616-5.622 1.616-8.036 0-2.414.121-5.652-1.616-7.424ZM125.558 22.178c-4.358 0-7.435-2.994-7.435-7.241V.24h1.645v14.482c0 3.606 2.316 5.988 5.79 5.988s5.79-2.382 5.79-5.988V.24h1.645v14.696c0 4.247-3.077 7.24-7.435 7.24M6.436 31.268v5.347h8.562v3.788H6.436v8.83H2.2V27.48h14.292v3.788H6.436M33.064 47.033c-1.524 1.528-3.382 2.383-5.85 2.383-1.31 0-2.439-.214-3.444-.672l-.883 1.833H19.87l1.615-3.391-.152-.153c-2.194-2.2-2.133-4.918-2.133-8.677 0-3.757-.061-6.477 2.133-8.676 1.523-1.528 3.412-2.384 5.88-2.384 1.311 0 2.438.214 3.444.673l.883-1.834h2.987l-1.615 3.392.152.153c2.194 2.2 2.164 4.919 2.164 8.676 0 3.759.03 6.477-2.164 8.677Zm-5.85-15.948c-1.159 0-2.134.458-2.743 1.161-.822.916-1.036 1.925-1.036 6.11 0 2.384.061 3.728.274 4.614l5.425-11.396c-.549-.336-1.189-.489-1.92-.489Zm3.474 2.658-5.425 11.365c.549.336 1.22.52 1.95.52 1.159 0 2.103-.458 2.713-1.161.822-.917 1.066-1.926 1.066-6.111 0-2.382-.091-3.727-.304-4.613ZM51.679 49.233l-4.236-8.677h-3.046v8.677H40.16V27.48h8.502c4.418 0 7.039 3.024 7.039 6.66 0 3.055-1.86 4.95-3.962 5.714l4.845 9.38H51.68Zm-3.29-17.965h-3.992v5.744h3.992c1.858 0 3.077-1.192 3.077-2.872s-1.219-2.872-3.077-2.872ZM73.586 47.033c-1.524 1.528-3.383 2.383-5.85 2.383-2.47 0-4.358-.855-5.882-2.383-2.194-2.2-2.132-4.918-2.132-8.677 0-3.757-.062-6.477 2.132-8.676 1.524-1.528 3.413-2.384 5.881-2.384 2.468 0 4.327.856 5.85 2.384 2.195 2.2 2.164 4.919 2.164 8.676 0 3.759.03 6.477-2.163 8.677Zm-3.139-14.787c-.61-.703-1.554-1.16-2.712-1.16-1.158 0-2.133.457-2.743 1.16-.822.916-1.036 1.925-1.036 6.11 0 4.185.214 5.194 1.036 6.11.61.704 1.585 1.162 2.743 1.162s2.103-.458 2.712-1.161c.823-.917 1.067-1.926 1.067-6.111s-.244-5.194-1.067-6.11ZM88.422 40.311v8.922h-4.205v-8.922L77.696 27.48h4.602l4.052 8.769 3.992-8.769h4.601l-6.521 12.831M109.048 49.233l-1.28-3.85h-7.71l-1.31 3.85H94.33l7.892-21.753h3.321l7.923 21.753h-4.418Zm-5.059-15.337-2.742 7.913h5.394l-2.652-7.913ZM128.028 49.233l-4.236-8.677h-3.047v8.677h-4.236V27.48h8.502c4.419 0 7.04 3.024 7.04 6.66 0 3.055-1.86 4.95-3.963 5.714l4.846 9.38h-4.906Zm-3.29-17.965h-3.993v5.744h3.992c1.859 0 3.077-1.192 3.077-2.872s-1.218-2.872-3.077-2.872ZM4.096 64.333c-1.039 0-1.826-.733-1.826-1.84v-3.117c0-1.107.787-1.84 1.826-1.84 1.04 0 1.826.733 1.826 1.84v3.117c0 1.107-.786 1.84-1.826 1.84Zm1.152-4.919c0-.732-.413-1.277-1.152-1.277-.739 0-1.152.545-1.152 1.277v3.04c0 .733.413 1.277 1.152 1.277.74 0 1.152-.544 1.152-1.276v-3.041ZM12.227 64.276v-5.932l-1.245 1.098v-.769l1.245-1.08h.674v6.683h-.674M20.386 64.276v-5.932l-1.245 1.098v-.769l1.245-1.08h.673v6.683h-.673M28.573 64.333c-1.04 0-1.826-.733-1.826-1.84v-3.117c0-1.107.787-1.84 1.826-1.84 1.04 0 1.826.733 1.826 1.84v3.117c0 1.107-.787 1.84-1.826 1.84Zm1.151-4.919c0-.732-.412-1.277-1.151-1.277-.74 0-1.152.545-1.152 1.277v3.04c0 .733.413 1.277 1.152 1.277.74 0 1.151-.544 1.151-1.276v-3.041ZM36.731 64.333c-1.039 0-1.825-.733-1.825-1.84v-3.117c0-1.107.786-1.84 1.825-1.84 1.04 0 1.826.733 1.826 1.84v3.117c0 1.107-.786 1.84-1.826 1.84Zm1.152-4.919c0-.732-.412-1.277-1.152-1.277-.739 0-1.152.545-1.152 1.277v3.04c0 .733.413 1.277 1.152 1.277.74 0 1.152-.544 1.152-1.276v-3.041ZM44.862 64.276v-5.932l-1.245 1.098v-.769l1.245-1.08h.674v6.683h-.674M53.022 64.276v-5.932l-1.246 1.098v-.769l1.246-1.08h.673v6.683h-.673M61.208 64.333c-1.04 0-1.825-.733-1.825-1.84v-3.117c0-1.107.786-1.84 1.825-1.84 1.04 0 1.825.733 1.825 1.84v3.117c0 1.107-.786 1.84-1.825 1.84Zm1.152-4.919c0-.732-.412-1.277-1.152-1.277s-1.152.545-1.152 1.277v3.04c0 .733.413 1.277 1.152 1.277.74 0 1.152-.544 1.152-1.276v-3.041ZM74.972 64.333c-1.04 0-1.826-.733-1.826-1.84v-3.117c0-1.107.787-1.84 1.826-1.84 1.039 0 1.825.733 1.825 1.84v3.117c0 1.107-.786 1.84-1.825 1.84Zm1.151-4.919c0-.732-.412-1.277-1.151-1.277-.74 0-1.152.545-1.152 1.277v3.04c0 .733.412 1.277 1.152 1.277s1.151-.544 1.151-1.276v-3.041ZM83.103 64.276v-5.932l-1.245 1.098v-.769l1.245-1.08h.674v6.683h-.674M91.262 64.276v-5.932l-1.245 1.098v-.769l1.245-1.08h.674v6.683h-.674M99.449 64.333c-1.04 0-1.826-.733-1.826-1.84v-3.117c0-1.107.786-1.84 1.826-1.84 1.039 0 1.825.733 1.825 1.84v3.117c0 1.107-.786 1.84-1.825 1.84Zm1.15-4.919c0-.732-.411-1.277-1.15-1.277-.74 0-1.153.545-1.153 1.277v3.04c0 .733.413 1.277 1.153 1.277.739 0 1.15-.544 1.15-1.276v-3.041ZM107.58 64.276v-5.932l-1.245 1.098v-.769l1.245-1.08h.673v6.683h-.673M115.738 64.276v-5.932l-1.245 1.098v-.769l1.245-1.08h.674v6.683h-.674M123.897 64.276v-5.932l-1.245 1.098v-.769l1.245-1.08h.674v6.683h-.674M132.056 64.276v-5.932l-1.245 1.098v-.769l1.245-1.08h.674v6.683h-.674"/></g></svg>