<svg version="1.2" xmlns="http://www.w3.org/2000/svg" viewBox="0 0 1079 1079" width="1079" height="1079">
	<style>
		.s0 { fill: #f4f3f3 } 
		.s1 { fill: none;stroke: #1c2f40;stroke-linecap: round;stroke-linejoin: round;stroke-width: 19 } 
		.s2 { fill: #1c2f40 } 
		.s3 { fill: #347cbf } 
		.s4 { fill: #fcaf2a } 
	</style>
	<g>
		<path class="s0" d="m313.56 538.51c0-22.62 7.5-43.49 20.15-60.26q-0.15-3.28-0.15-6.6c0-92.24 91.98-167.01 205.44-167.01 113.46 0 205.44 74.77 205.44 167.01q0 3.32-0.15 6.6c12.65 16.77 20.15 37.64 20.15 60.26 0 34.83-17.78 65.51-44.76 83.45-34.77 27.03-102.65 45.37-180.68 45.37-78.03 0-145.91-18.34-180.68-45.37-26.98-17.94-44.76-48.62-44.76-83.45z"/>
		<path class="s1" d="m472.95 558.52c0 0 12.28 24.6 66.05 24.6 53.77 0 66.05-24.6 66.05-24.6"/>
		<path fill-rule="evenodd" class="s2" d="m643.11 513.89c-17.34 0-31.36-18.03-31.36-40.33 0-22.31 14.02-40.33 31.36-40.33 17.34 0 31.36 18.02 31.36 40.33 0 22.3-14.02 40.33-31.36 40.33z"/>
		<path fill-rule="evenodd" class="s0" d="m635.15 468.53c-5.85 0-10.58-6.08-10.58-13.61 0-7.52 4.73-13.6 10.58-13.6 5.85 0 10.58 6.08 10.58 13.6 0 7.53-4.73 13.61-10.58 13.61z"/>
		<path fill-rule="evenodd" class="s2" d="m434.89 513.89c17.34 0 31.36-18.03 31.36-40.33 0-22.31-14.02-40.33-31.36-40.33-17.34 0-31.36 18.02-31.36 40.33 0 22.3 14.02 40.33 31.36 40.33z"/>
		<path fill-rule="evenodd" class="s0" d="m442.85 468.53c5.85 0 10.58-6.08 10.58-13.61 0-7.52-4.73-13.6-10.58-13.6-5.85 0-10.58 6.08-10.58 13.6 0 7.53 4.73 13.61 10.58 13.61z"/>
		<g>
			<path class="s3" d="m749.52 271.32c-17.42 37.26-38.77 67.82-58.07 85.42-0.53 0.93-10.35 12.58-32.92 1.92-22.56-10.66-17.98-21.47-18.25-22.01 0.29-26.34 10.12-64.02 28.4-103.11 30.75-65.81 73.79-110.7 96.11-100.27 22.32 10.44 15.49 72.24-15.27 138.05z"/>
			<path class="s4" d="m749.52 271.32c-8.2 17.55-17.28 33.61-26.6 47.53-13.66-0.74-27.95-4.22-41.81-10.68-12.51-5.84-23.39-13.5-32.26-22.29 4.73-16.49 11.38-34.27 19.83-52.34 11.72-25.08 25.22-47.12 38.68-64.21 11.19 1.45 22.66 4.73 33.85 9.95 12.62 5.88 23.57 13.62 32.48 22.49-4.54 20.99-12.69 44.99-24.17 69.55z"/>
		</g>
		<g>
			<path class="s3" d="m328.48 271.32c17.42 37.26 38.77 67.82 58.07 85.42 0.53 0.93 10.35 12.58 32.92 1.92 22.56-10.66 17.98-21.47 18.25-22.01-0.29-26.34-10.12-64.02-28.4-103.11-30.75-65.81-73.79-110.7-96.11-100.27-22.32 10.44-15.49 72.24 15.27 138.05z"/>
			<path class="s4" d="m328.48 271.32c8.2 17.55 17.28 33.61 26.6 47.53 13.66-0.74 27.95-4.22 41.81-10.68 12.51-5.84 23.39-13.5 32.26-22.29-4.73-16.49-11.38-34.27-19.83-52.34-11.72-25.08-25.22-47.12-38.68-64.21-11.19 1.45-22.66 4.73-33.85 9.95-12.62 5.88-23.57 13.62-32.48 22.49 4.54 20.99 12.69 44.99 24.17 69.55z"/>
		</g>
	</g>
	<path id="Usable" class="s0" aria-label="Usable"  d="m164.6 937.3q-26 0-46.2-11.1-19.7-11.2-31.2-30.6-11.1-19.8-11.1-44.8v-128.6h47.3v131.1q0 12.7 5.2 22.2 5.7 9 15 14.1 9.5 4.8 21 4.8 11.8 0 20.7-4.8 9.3-5.1 14.4-14.1 5.4-9.3 5.4-21.9v-131.4h47.4v128.8q0 25.1-11.4 44.6-10.9 19.4-30.9 30.6-19.5 11.1-45.6 11.1zm174.5 0.5q-12.8 0-25.3-3.2-12.4-3.6-23.1-9.6-10.5-6.1-18-14.4l25.9-26.4q7.4 8 17.3 12.3 9.9 4.2 21.6 4.2 8.1 0 12.3-2.1 4.3-2.6 4.3-6.9 0-5.4-5.2-8.1-5.1-3-13.2-5.1-8.1-2.2-17.1-4.8-9-3-17.4-7.8-7.9-4.8-13.2-13.2-4.9-8.5-4.9-21.9 0-13.9 7-24.3 7.4-10.5 20.4-16.2 13.4-6.1 31.2-6.1 18.4 0 34.2 6.4 15.9 6.3 25.8 19.1l-26.1 26.3q-6.9-8-15.6-11.2-8.4-3.6-16.6-3.6-7.8 0-11.9 2.4-3.6 2.3-3.6 6.3 0 4.6 5.1 7.5 5.1 2.6 13.2 4.8 8.1 2 16.8 5.1 9.1 2.7 17.1 8.1 8.3 5 13.2 13.5 5.2 8.6 5.2 22.2 0 21.4-16 34.2-16 12.5-43.4 12.5zm145-0.8q-20.1 0-36-9.9-15.7-9.9-24.9-27-9-17.1-9-38.8 0-21.9 9-38.9 9.2-17.4 24.9-27.3 15.9-9.9 36-9.9 14.7 0 26.4 5.7 12 5.7 19.2 15.9 7.7 9.9 8.7 22.8v63q-1 12.9-8.4 23.1-7.4 9.9-19.5 15.6-11.7 5.7-26.4 5.7zm9.3-41.4q14.7 0 23.7-9.6 9-9.7 9-24.9 0-10.2-4.2-17.7-3.9-7.9-11.4-12.3-7.2-4.5-16.9-4.5-9.6 0-17 4.5-7.3 4.4-11.7 12.3-4.2 7.6-4.2 17.7 0 10 4.2 18 4.2 7.7 11.4 12.3 7.7 4.2 17.1 4.2zm75.9 38.4h-45.2v-39.1l6.9-35.6-6.9-35.3v-35.8h45.2zm116.9 3q-14.8 0-27.3-6-12.2-6.1-20.1-16.5-7.5-10.5-8.7-23.4v-61.5q1.2-12.9 9-22.8 7.8-10.2 20.1-15.9 12.3-5.7 27-5.7 20.7 0 36.6 9.9 16.2 9.9 25.2 27.3 9.3 17 9.3 38.9 0 21.7-9.3 38.8-9 17.1-25.2 27-15.9 9.9-36.6 9.9zm-38.8-3h-45.2v-217.8h45.9v107.9l-7.6 35.2 6.9 35.6zm30.7-38.4q9.6 0 16.8-4.2 7.5-4.7 11.7-12.3 4.2-8 4.2-18 0-10.1-4.2-17.7-4.2-8-11.7-12.3-7.4-4.5-16.9-4.5-9.6 0-17.3 4.5-7.2 4.3-11.4 12.3-3.9 7.5-3.9 17.7 0 10.2 3.9 18 4.3 7.8 11.7 12.3 7.5 4.2 17.1 4.2zm148 38.4h-45.9v-217.8h45.9zm103.9 3.3q-23.6 0-42.1-9.6-18.3-9.9-28.8-27-10.5-17.6-10.5-39.6 0-21.9 10.2-39 10.3-17.3 27.9-27 18-10.2 40-10.2 21.7 0 38 9.6 16.8 9.1 26.1 25.8 9.6 16.3 9.6 37.5 0 4-0.6 8.4-0.3 4.3-1.5 9.9l-125.7 0.4v-31.5l106.2-0.4-19.8 13.3q-0.3-12.6-4.2-20.8-3.4-8.4-10.5-12.6-6.9-4.5-17.3-4.5-10.8 0-18.7 5.1-7.9 4.8-12.3 14.1-4.2 8.8-4.2 21.6 0 12.9 4.5 22.2 4.7 9.1 13.2 14.1 8.5 4.8 20.4 4.8 10.8 0 19.5-3.6 8.7-3.8 15.3-11.3l25.2 25.2q-10.8 12.5-26.1 18.8-15.3 6.3-33.8 6.3z"/>
</svg>