<svg version="1.2" xmlns="http://www.w3.org/2000/svg" viewBox="0 0 2169 600" width="2169" height="600">
	<style>
		.s0 { fill: #f4f3f3 } 
		.s1 { fill: none;stroke: #1c2f40;stroke-linecap: round;stroke-linejoin: round;stroke-width: 19 } 
		.s2 { fill: #1c2f40 } 
		.s3 { fill: #347cbf } 
		.s4 { fill: #fcaf2a } 
	</style>
	<g>
		<path class="s0" d="m74.56 442.51c0-22.62 7.5-43.49 20.15-60.26q-0.15-3.28-0.15-6.6c0-92.24 91.98-167.01 205.44-167.01 113.46 0 205.44 74.77 205.44 167.01q0 3.32-0.15 6.6c12.65 16.77 20.15 37.64 20.15 60.26 0 34.83-17.78 65.51-44.76 83.45-34.77 27.03-102.65 45.37-180.68 45.37-78.03 0-145.91-18.34-180.68-45.37-26.98-17.94-44.76-48.62-44.76-83.45z"/>
		<path class="s1" d="m233.95 462.52c0 0 12.28 24.6 66.05 24.6 53.77 0 66.05-24.6 66.05-24.6"/>
		<path fill-rule="evenodd" class="s2" d="m404.11 417.89c-17.34 0-31.36-18.03-31.36-40.33 0-22.31 14.02-40.33 31.36-40.33 17.34 0 31.36 18.02 31.36 40.33 0 22.3-14.02 40.33-31.36 40.33z"/>
		<path fill-rule="evenodd" class="s0" d="m396.15 372.53c-5.85 0-10.58-6.08-10.58-13.61 0-7.52 4.73-13.6 10.58-13.6 5.85 0 10.58 6.08 10.58 13.6 0 7.53-4.73 13.61-10.58 13.61z"/>
		<path fill-rule="evenodd" class="s2" d="m195.89 417.89c17.34 0 31.36-18.03 31.36-40.33 0-22.31-14.02-40.33-31.36-40.33-17.34 0-31.36 18.02-31.36 40.33 0 22.3 14.02 40.33 31.36 40.33z"/>
		<path fill-rule="evenodd" class="s0" d="m203.85 372.53c5.85 0 10.58-6.08 10.58-13.61 0-7.52-4.73-13.6-10.58-13.6-5.85 0-10.58 6.08-10.58 13.6 0 7.53 4.73 13.61 10.58 13.61z"/>
		<g>
			<path class="s3" d="m510.52 175.32c-17.42 37.26-38.77 67.82-58.07 85.42-0.53 0.93-10.35 12.58-32.92 1.92-22.56-10.66-17.98-21.47-18.25-22.01 0.29-26.34 10.12-64.02 28.4-103.11 30.75-65.81 73.79-110.7 96.11-100.27 22.32 10.44 15.49 72.24-15.27 138.05z"/>
			<path class="s4" d="m510.52 175.32c-8.2 17.55-17.28 33.61-26.6 47.53-13.66-0.74-27.95-4.22-41.81-10.68-12.51-5.84-23.39-13.5-32.26-22.29 4.73-16.49 11.38-34.27 19.83-52.34 11.72-25.08 25.22-47.12 38.68-64.21 11.19 1.45 22.66 4.73 33.85 9.95 12.62 5.88 23.57 13.62 32.48 22.49-4.54 20.99-12.69 44.99-24.17 69.55z"/>
		</g>
		<g>
			<path class="s3" d="m89.48 175.32c17.42 37.26 38.77 67.82 58.07 85.42 0.53 0.93 10.35 12.58 32.92 1.92 22.56-10.66 17.98-21.47 18.25-22.01-0.29-26.34-10.12-64.02-28.4-103.11-30.75-65.81-73.79-110.7-96.11-100.27-22.32 10.44-15.49 72.24 15.27 138.05z"/>
			<path class="s4" d="m89.48 175.32c8.2 17.55 17.28 33.61 26.6 47.53 13.66-0.74 27.95-4.22 41.81-10.68 12.51-5.84 23.39-13.5 32.26-22.29-4.73-16.49-11.38-34.27-19.83-52.34-11.72-25.08-25.22-47.12-38.68-64.21-11.19 1.45-22.66 4.73-33.85 9.95-12.62 5.88-23.57 13.62-32.48 22.49 4.54 20.99 12.69 44.99 24.17 69.55z"/>
		</g>
	</g>
	<path id="Usable" class="s2" aria-label="Usable"  d="m792.9 528.2q-41.1 0-73-17.5-31.2-17.8-49.3-48.4-17.6-31.3-17.6-70.8v-203.1h74.7v207.1q0 20.1 8.3 35.1 9 14.2 23.7 22.2 14.9 7.6 33.2 7.6 18.7 0 32.7-7.6 14.6-7.9 22.7-22.2 8.5-14.7 8.5-34.6v-207.6h74.9v203.5q0 39.6-18 70.4-17.2 30.6-48.8 48.4-30.8 17.5-72 17.5zm275.4 0.7q-20.4 0-40.1-5-19.7-5.6-36.5-15.1-16.6-9.7-28.4-22.8l41-41.7q11.6 12.6 27.2 19.4 15.7 6.7 34.2 6.7 12.7 0 19.4-3.3 6.9-4.1 6.9-10.9 0-8.6-8.3-12.8-8.1-4.8-20.9-8.1-12.8-3.5-27-7.6-14.2-4.7-27.5-12.3-12.6-7.6-20.9-20.9-7.8-13.5-7.8-34.6 0-22 11.2-38.4 11.6-16.5 32.2-25.5 21.1-9.8 49.3-9.8 29.1 0 54 10.2 25.1 10 40.8 30.1l-41.3 41.7q-10.9-12.8-24.6-17.7-13.3-5.7-26.3-5.7-12.3 0-18.7 3.8-5.7 3.5-5.7 9.9 0 7.4 8 11.9 8.1 4 20.9 7.6 12.8 3 26.5 8 14.5 4.3 27.1 12.8 13 7.8 20.8 21.3 8.3 13.6 8.3 35.1 0 33.9-25.3 54.1-25.4 19.6-68.5 19.6zm229.5-1.2q-31.7 0-56.9-15.6-24.8-15.6-39.3-42.7-14.2-27-14.2-61.3 0-34.6 14.2-61.4 14.5-27.5 39.3-43.2 25.2-15.6 56.9-15.6 23.2 0 41.7 9 19 9 30.4 25.1 12.1 15.7 13.7 36v99.6q-1.6 20.4-13.3 36.5-11.6 15.6-30.8 24.6-18.5 9-41.7 9zm14.7-65.4q23.2 0 37.5-15.1 14.2-15.4 14.2-39.4 0-16.1-6.7-27.9-6.1-12.6-18-19.5-11.3-7.1-26.8-7.1-15.1 0-26.7 7.1-11.6 6.9-18.5 19.5-6.7 12-6.7 27.9 0 15.9 6.7 28.5 6.6 12 18 19.4 12.1 6.6 27 6.6zm119.9 60.7h-71.3v-61.9l10.9-56.1-10.9-55.7v-56.7h71.3zm183.9 4.8q-23.4 0-43.1-9.5-19.2-9.7-31.8-26.1-11.8-16.6-13.7-36.9v-97.2q1.9-20.4 14.2-36 12.3-16.2 31.8-25.2 19.4-9 42.6-9 32.7 0 57.8 15.7 25.6 15.6 39.9 43.1 14.7 26.8 14.7 61.4 0 34.4-14.7 61.4-14.3 27-39.9 42.6-25.1 15.7-57.8 15.7zm-61.4-4.8h-71.3v-344.1h72.5v170.4l-12.1 55.7 10.9 56.2zm48.6-60.7q15.2 0 26.6-6.6 11.8-7.4 18.4-19.5 6.7-12.5 6.7-28.4 0-15.9-6.7-28-6.6-12.5-18.4-19.4-11.7-7.1-26.8-7.1-15.2 0-27.3 7.1-11.3 6.9-18 19.4-6.1 11.9-6.1 28 0 16.1 6.1 28.4 6.9 12.4 18.5 19.5 11.8 6.6 27 6.6zm234.6 60.7h-72.5v-344.1h72.5zm165 5.2q-37.4 0-66.6-15.2-28.9-15.6-45.5-42.7-16.6-27.7-16.6-62.5 0-34.6 16.1-61.6 16.4-27.3 44.1-42.7 28.5-16.1 63.3-16.1 34.1 0 60 15.1 26.5 14.5 41.2 40.8 15.2 25.8 15.2 59.3 0 6.4-1 13.2-0.5 6.9-2.3 15.7l-198.7 0.7v-49.8l167.8-0.7-31.2 21.1q-0.5-19.9-6.7-32.9-5.4-13.3-16.6-20-10.9-7.1-27.2-7.1-17.1 0-29.6 8.1-12.6 7.6-19.5 22.3-6.6 14-6.6 34.1 0 20.4 7.1 35.1 7.3 14.4 20.9 22.3 13.5 7.5 32.2 7.5 17 0 30.8-5.7 13.7-5.9 24.2-17.7l39.8 39.8q-17.1 19.7-41.3 29.6-24.1 10-53.3 10z"/>
</svg>